# xmcd CD database file
#
# Track frame offsets:
#	150
#	20142
#	42250
#	71317
#	97642
#	109842
#	134840
#	167377
#	180660
#	204152
#	235995
#
# Disc length: 3342 seconds
#
# Revision: 0
# Processed by: cddbd v1.5.1PL0 Copyright (c) Steve Scherf et al.
# Submitted via: CDex 1.51
#
DISCID=8b0d0c0b
DTITLE=Wawau Adler - With Body and Soul
DYEAR=1991
DGENRE=Jazz
TTITLE0=All The Things You Are
TTITLE1=Rainy Days in Derry
TTITLE2=Body And Soul
TTITLE3=Betissa X
TTITLE4=Heidenstuck (Solo)
TTITLE5=Impressions
TTITLE6=Something 'Round Midnight
TTITLE7=Eisenlohr (Solo)
TTITLE8=Jack'n Wine
TTITLE9=Nuages
TTITLE10=Dacin' Cookroach
EXTD=YEAR: 1991
EXTT0=
EXTT1=
EXTT2=
EXTT3=
EXTT4=
EXTT5=
EXTT6=
EXTT7=
EXTT8=
EXTT9=
EXTT10=
PLAYORDER=
